<?xml version="1.0" encoding="UTF-8" standalone="no"?>
<svg
   xmlns:dc="http://purl.org/dc/elements/1.1/"
   xmlns:cc="http://creativecommons.org/ns#"
   xmlns:rdf="http://www.w3.org/1999/02/22-rdf-syntax-ns#"
   xmlns:svg="http://www.w3.org/2000/svg"
   xmlns="http://www.w3.org/2000/svg"
   xmlns:sodipodi="http://sodipodi.sourceforge.net/DTD/sodipodi-0.dtd"
   xmlns:inkscape="http://www.inkscape.org/namespaces/inkscape"
   version="1.1"
   id="svg1100"
   xml:space="preserve"
   width="1122.52"
   height="793.70135"
   viewBox="0 0 1122.52 793.70135"
   sodipodi:docname="fonas-apacia.svg"
   inkscape:version="1.0.1 (3bc2e813f5, 2020-09-07)"><metadata
     id="metadata1106"><rdf:RDF><cc:Work
         rdf:about=""><dc:format>image/svg+xml</dc:format><dc:type
           rdf:resource="http://purl.org/dc/dcmitype/StillImage" /><dc:title></dc:title></cc:Work></rdf:RDF></metadata><defs
     id="defs1104"><clipPath
       clipPathUnits="userSpaceOnUse"
       id="clipPath1116"><path
         d="M 0,595.276 H 841.89 V 0 H 0 Z"
         id="path1114"
         inkscape:connector-curvature="0" /></clipPath><clipPath
       clipPathUnits="userSpaceOnUse"
       id="clipPath1124"><path
         d="M -0.241211,595.468 H 536.858 V -0.839844 H -0.241211 Z"
         id="path1122"
         inkscape:connector-curvature="0" /></clipPath><linearGradient
       x1="0"
       y1="0"
       x2="1"
       y2="0"
       gradientUnits="userSpaceOnUse"
       gradientTransform="matrix(537.09961,0,0,-537.09961,-0.2412109,297.31445)"
       spreadMethod="pad"
       id="linearGradient1136"><stop
         style="stop-opacity:1;stop-color:#ffeaa7"
         offset="0"
         id="stop1130" /><stop
         style="stop-opacity:1;stop-color:#fcca02"
         offset="0.5"
         id="stop1132" /><stop
         style="stop-opacity:1;stop-color:#f6ac09"
         offset="1"
         id="stop1134" /></linearGradient></defs><sodipodi:namedview
     pagecolor="#ffffff"
     bordercolor="#666666"
     borderopacity="1"
     objecttolerance="10"
     gridtolerance="10"
     guidetolerance="10"
     inkscape:pageopacity="0"
     inkscape:pageshadow="2"
     inkscape:window-width="1920"
     inkscape:window-height="1137"
     id="namedview1102"
     showgrid="false"
     inkscape:zoom="0.59385271"
     inkscape:cx="781.93036"
     inkscape:cy="220.09787"
     inkscape:window-x="-8"
     inkscape:window-y="-8"
     inkscape:window-maximized="1"
     inkscape:current-layer="g1108"
     inkscape:document-rotation="0" /><g
     id="g1108"
     inkscape:groupmode="layer"
     inkscape:label="abstract-775-publicdomainvectors.org"
     transform="matrix(1.3333333,0,0,-1.3333333,0,793.70133)"><g
       id="g1120"
       transform="rotate(90,268.30864,297.314)" /><g
       id="g1150"
       transform="matrix(-0.52347659,0.89044666,-0.87302252,-0.51323327,1164.4797,-4.788205)"><g
         clip-path="url(#clipPath1124)"
         id="g1148"><g
           id="g1146"><g
             id="g1144"><g
               id="g1142"><g
                 id="g1140"><path
                   d="m 434.212,-0.84 c 0.017,4.599 2.682,10.813 5.28,13.034 1.758,1.485 3.131,1.649 5.362,2.168 5.32,1.336 7.757,-1.666 8.896,-5.424 1.021,-3.462 0.865,-6.817 -0.032,-9.778 z m 55.706,61.857 c 4.122,0.978 6.326,-0.94 7.515,-6.752 3.051,-14.932 -11.939,-22.284 -14.343,-7.737 -1.236,7.151 2.604,13.51 6.828,14.489 M 383.247,-0.84 c -1.504,7.455 1.367,13.955 3.259,16.62 3.326,4.533 7.273,7.61 12.254,8.981 6.179,1.695 8.987,-0.223 11.869,-2.912 1.45,-1.409 3.09,-3.172 3.836,-5.715 1.849,-5.965 0.977,-12.01 -1.549,-16.974 z m 142.535,98.917 c 3.154,0.426 4.185,-2.465 4.697,-4.793 2.088,-9.734 -6.629,-14.314 -8.361,-4.025 -0.925,5.504 1.443,8.496 3.664,8.818 M 442.355,58.556 c 0.406,4.931 1.51,6.902 2.858,9.183 2.594,4.358 5.121,6.549 8.601,7.278 4.434,0.988 6.696,-0.817 8.557,-3.141 0.436,-0.588 1.225,-1.102 1.693,-1.91 4.413,-7.029 3.108,-17.082 0.223,-21.934 -0.387,-0.709 -0.861,-1.793 -1.39,-2.597 -9.12,-12.334 -21.727,-2.323 -20.542,13.121 M 320.435,-0.84 c -0.635,1.169 -1.176,2.432 -1.61,3.788 -2.812,8.709 1.209,19.389 5.68,23.637 0.336,0.301 0,2.062 0.411,2.449 3.507,3.867 8.399,6.092 13.779,7.619 10.029,2.899 16.881,0.633 21.78,-4.424 7.907,-8.288 7.769,-22.882 0.188,-33.069 z m 173.922,116.997 c 0.753,0.229 1.584,1.153 2.352,1.172 2.113,-0.027 6.398,-4.941 7.032,-6.287 2.859,-6.566 1.808,-11.896 0.845,-15.422 -1.186,-4.355 -3.74,-8.389 -7.535,-8.564 -2.286,-0.057 -6.004,3.195 -7.219,5.884 -3.634,8.168 -2.367,20.897 4.525,23.217 M 398.762,49.228 c -2.87,2.878 -7.588,10.146 -7.063,20.218 0.131,2.514 1.548,5.135 1.901,6.239 0.973,3.279 2.439,5.937 3.951,8.177 2.108,3.235 6.461,6.196 9.174,7.059 8.555,2.771 13.355,-0.867 17.342,-5.229 8.836,-9.912 6.074,-25.005 1.044,-32.955 -2.881,-4.472 -9.531,-9.545 -15.421,-9.584 -3.667,-0.037 -8.842,4.116 -10.928,6.075 m 126.918,96.369 c 0.881,2.185 1.236,2.947 3.66,2.582 2.32,-0.348 3.808,-2.67 4.806,-6.151 2.109,-6.951 -0.613,-12.228 -3.394,-12.656 -2.203,-0.262 -5.344,3.705 -6.15,9.691 -0.403,2.895 0.539,5.323 1.078,6.534 M 248.723,-0.84 c -5.232,3.159 -9.642,7.66 -11.896,13.302 -3.08,7.619 -0.744,16.213 1.031,20.732 1.857,4.639 2.525,5.565 6.887,9.764 5.427,5.189 13.621,8.516 19.911,9.639 8.715,1.453 13.314,0.771 18.387,-0.793 4.446,-1.346 6.687,-2.826 9.957,-5.53 10.186,-8.461 11.961,-22.263 8.315,-31.857 -1.583,-4.318 -2.218,-5.201 -5.979,-9.135 C 293.03,2.864 290.323,0.82 287.385,-0.84 Z M -0.241,5.686 C 7.499,8.337 20.909,8.96 27.342,8.718 45.056,8.06 56.948,2.928 63.078,-0.84 H -0.241 Z m 450.923,97.163 c -5.127,15.39 -2.112,24.216 2.718,31.437 2.678,0.412 6.18,3.809 8.23,2.338 5.13,0.461 8.491,-4.863 11.954,-9.635 4.666,-14.529 2.066,-22.924 -2.523,-29.904 -2.497,-1.365 -5.133,-2.559 -7.753,-3.859 -4.843,0.906 -9.048,4.107 -12.626,9.623 M 374.348,57.788 c -3.705,-3.031 -10.39,-6.529 -14.977,-7.252 -5.621,-0.828 -9.033,1.26 -13.827,3.656 -3.524,1.85 -8.049,4.123 -9.871,6.832 -6.05,9.063 -7.678,22.018 -4.938,29.762 1.193,3.367 2.379,5.914 3.951,8.693 3.172,5.516 10.274,9.709 14.933,10.893 7.522,1.889 11.149,1.313 15.565,-0.947 4.943,-2.606 10.653,-6.522 12.532,-9.694 0.516,-0.906 1.609,-2.568 1.757,-2.8 6.177,-12.358 3.939,-21.45 0.678,-29.02 -1.601,-3.742 -3.563,-8.178 -5.803,-10.123 M 492.373,165.44 c 1.543,3.393 3.686,5.289 6.586,5.342 3.623,0.094 5.501,-2.256 7.538,-5.314 1.026,-1.596 2.2,-3.576 2.895,-6.047 3.008,-10.42 0.636,-19.129 -3.857,-21.543 -5.402,-2.908 -10.923,2.799 -13.261,11.543 -2.159,7.955 -0.866,13.894 0.099,16.019 M 208.461,14.728 C 192.387,3.284 163.242,3.71 149.519,11.278 c -1.141,0.668 -9.514,6.627 -12.479,9.856 -17.034,19.115 -6.224,41.785 12.461,49.795 4.393,1.9 14.061,2.629 13.699,2.593 24.88,3.612 49.071,-6.865 55.968,-25.49 2.033,-5.594 0.821,-18.025 0.133,-19.949 -1.596,-4.543 -7.116,-10.67 -10.84,-13.355 m 225.715,93.037 c -2.716,-2.606 -7.725,-5.383 -11.178,-5.778 -4.222,-0.488 -6.877,1.707 -10.545,4.262 -2.732,1.873 -6.154,4.32 -7.605,6.938 -4.848,8.751 -6.379,20.835 -4.586,27.738 0.799,3.015 1.653,5.256 2.676,7.734 2.214,4.867 7.414,8.176 10.851,9.076 5.621,1.225 8.357,0.498 11.802,-1.828 3.827,-2.678 8.286,-6.642 9.854,-9.644 0.42,-0.867 1.343,-2.45 1.43,-2.688 5.111,-11.777 3.723,-20.006 1.436,-26.799 -1.067,-3.369 -2.431,-7.425 -4.135,-9.011 m 92.309,86.521 c 0.722,1.962 1.591,3.111 4.162,2.301 1.767,-0.514 3.475,-2.404 4.28,-4.438 6.963,-17.206 -6.954,-23.232 -9.427,-3.407 -0.285,2.368 0.631,4.602 0.985,5.544 M 310.562,69.358 c -12.503,-8.804 -30.267,-7.701 -39.591,-3.232 -10.066,4.791 -20.713,16.824 -23.448,31.535 -0.82,4.57 0.858,11.338 1.791,14.42 4.469,13.941 15.038,23.092 34.228,23.215 13.19,0.074 26.371,-7.84 31.893,-16.08 9.774,-14.504 7.804,-31.094 4.524,-38.11 -2.199,-4.56 -7.008,-9.966 -9.397,-11.748 M -0.241,91.684 c 0.926,1.262 1.834,2.277 2.628,2.897 0.324,0.272 5.107,2.648 7.016,3.738 7.236,3.836 22.065,5.506 28.514,5.541 12.696,0.272 14.62,0.75 22.578,-1.035 12.4,-2.644 26.23,-9.529 33.234,-15.006 11.789,-9.316 18.325,-25.289 17.11,-33.97 -1.145,-7.2 -7.387,-15.635 -14.261,-19.93 C 85.222,26.911 62.722,24.905 49.316,27.345 36.277,29.677 21.976,36.485 14.578,41.778 8.6,46.088 3.458,51.966 -0.241,58.021 Z m 479.5,62.897 c -3.179,-5.893 -8.785,-7.471 -13.563,-5.314 -4.71,2.236 -10.182,8.83 -12.706,17.828 -1.737,6.445 -1.379,13.037 -0.849,16.42 0.47,3.466 0.72,4.102 2.324,6.937 1.97,3.5 5.324,5.196 7.996,5.343 3.72,0.219 5.84,-0.874 8.174,-2.72 2.081,-1.592 3.219,-2.974 4.844,-5.512 5.207,-7.911 6.887,-19.07 5.914,-26.337 -0.462,-3.286 -0.67,-3.913 -2.134,-6.645 m -90.982,-31.477 c -4.379,-4.675 -14.583,-7.703 -19.079,-7.589 -4.822,0.211 -8.567,2.943 -12.641,5.603 -3.74,2.403 -7.564,4.512 -9.485,7.037 -4.944,6.453 -10.213,21.227 -10.144,30.387 -0.01,3.758 2.124,7.564 3.569,11.187 3.948,10.125 9.833,15.936 22.692,15.217 0.619,-0.052 1.149,0.387 1.758,0.383 7.364,-0.705 19.074,-10.256 21.873,-14.361 4.979,-7.297 8.707,-23.432 8.664,-28.114 -0.083,-5.123 -4.48,-16.763 -7.207,-19.75 m 107.912,72.868 c -3.9,8.299 -4.839,19.715 -2.208,24.765 1.231,2.313 4.645,2.735 6.22,2.442 4.799,-0.944 8.062,-6.45 9.092,-8.621 2.187,-4.733 3.572,-11.71 3.667,-13.317 0.468,-4.328 -0.924,-9.879 -2.185,-11.512 -4.416,-5.549 -11.574,-0.056 -14.586,6.243 m 29.649,45.351 c 0.6,1.809 1.437,2.83 3.973,1.65 1.726,-0.792 3.382,-2.876 4.348,-4.916 7.468,-17.769 -5.796,-21.728 -9.05,-1.997 -0.439,2.341 0.319,4.431 0.729,5.263 m -82.082,-68.802 c -0.207,-0.183 0.117,-1.823 -0.053,-2.145 -5.064,-9.117 -15.459,-9.041 -22.391,-4.75 -4.076,2.557 -10.365,9.359 -13.072,15.584 -5.824,13.533 -5.183,28.711 -0.72,35.61 2.82,4.211 7.714,6.556 13.361,5.89 8.539,-0.979 12.383,-5.715 16.764,-12.052 1.66,-2.346 3.908,-5.075 4.897,-7.483 5.081,-12.344 4.695,-26.091 1.214,-30.654 m -404.4,-50.463 c -0.577,0.353 -5.546,4.318 -7.707,6.041 -15.347,12.255 -26.095,34.793 -24.802,46.542 1.305,11.7 12.575,26.579 36.59,30.385 20.083,3.274 31.179,0.539 47.444,-5.398 0.569,-0.193 1.394,0.363 1.967,0.154 2.003,-0.857 4.272,-3.573 6.234,-4.613 8.898,-4.69 13.477,-7.183 20.134,-13.318 4.423,-4.118 9.427,-8.764 10.633,-10.485 7.265,-10.599 9.85,-31.492 7.84,-37.904 -2.461,-7.32 -14.591,-19.791 -30.376,-23.324 -24.228,-5.528 -54.187,3.273 -67.957,11.92 m 442.314,84.99 c -2.638,-4.16 -8.331,-5.016 -11.897,-3.184 -3.491,1.746 -7.477,6.286 -9.679,9.785 -3.797,6.166 -6.969,17.004 -7.283,23.338 -0.133,3.639 0.505,9.045 1.201,10.534 0,0 1.096,1.664 1.537,2.265 1.596,2.266 5.181,3.024 6.787,2.969 3.163,-0.145 3.644,0.133 5.752,-1.212 3.295,-2.022 7.305,-6.667 9.469,-10.298 3.672,-6.209 6.433,-16.483 6.641,-21.912 0.165,-4.556 -1.028,-9.709 -2.528,-12.285 m 14.471,40.232 c -4.189,8.638 -5.68,19.83 -3.327,24.334 1.143,2.014 4.419,1.918 5.993,1.467 4.752,-1.619 8.265,-7.353 9.324,-9.627 2.412,-4.865 3.979,-11.861 4.178,-13.439 0.621,-4.274 -0.461,-9.503 -1.621,-10.911 -4.066,-4.796 -11.303,1.592 -14.547,8.176 m 27.375,38.787 c 0.572,1.686 0.838,2.287 3.161,0.991 2.249,-1.184 3.861,-3.998 5.251,-7.676 2.744,-7.388 0.814,-11.404 -1.744,-10.692 -2.032,0.568 -5.456,5.629 -6.915,11.624 -0.759,2.892 -0.116,4.798 0.247,5.753 M 404.027,272.649 c 0.061,0.925 1.053,1.507 1.268,2.346 0.828,3.82 1.328,5.772 3.305,8.022 1.317,1.509 2.827,3.199 3.493,3.46 4.079,1.581 13.987,-2.018 17.375,-4.644 3.792,-3.049 11.182,-12.186 14.8,-20.998 5.286,-12.907 4.926,-25.361 2.795,-30.091 -0.037,-0.21 -1.18,-1.753 -1.674,-2.422 -3.382,-4.79 -11.754,-5.755 -17.047,-3.14 -5.362,2.657 -13.676,10.626 -18.996,22.932 -4.625,10.905 -5.211,16.096 -4.908,23.426 -0.134,0.371 -0.318,0.727 -0.411,1.109 m 76.911,-12.595 c -4.199,-5.809 -13.856,-1.547 -19.154,5.648 -0.41,0.637 -3.789,5.893 -5.098,8.551 -7.497,15.363 -6.739,29.524 -1.657,32.525 1.179,0.731 4.138,-0.041 4.138,-0.041 7.725,-0.862 17.177,-11.364 21.632,-25.004 1.356,-4.143 2.398,-12.613 2.329,-13.855 0.031,-2.951 -1.21,-6.484 -2.19,-7.824 m 25.167,26.727 c -5.355,-1.968 -13.292,9.052 -16.556,20.563 -1.716,6.112 -0.91,12.84 1.16,13.85 1.097,0.563 4.133,-0.986 4.428,-1.084 3.371,-1.518 5.875,-4.793 8.253,-8.729 7.069,-12.105 6.106,-23.349 2.715,-24.6 m 15.797,42.752 c 2.883,-1.445 4.299,-4.783 5.223,-7.225 3.73,-10.303 -3.469,-9.476 -6.99,1.216 -1.833,5.688 -0.26,7.025 1.767,6.009 m -43.975,-16.618 c -2.205,-4.305 -7.342,-3.543 -12.26,0.33 -4.839,3.888 -11.094,12.167 -14.78,21.405 -2.643,6.531 -3.174,12.32 -3.184,15.183 -0.062,2.904 0.172,3.368 1.258,5.313 1.501,2.319 4.439,2.686 6.998,1.739 3.575,-1.276 5.744,-3.04 8.315,-5.526 2.208,-2.225 3.544,-3.85 5.451,-6.775 6.181,-9.119 9.332,-20.019 9.329,-26.324 0.052,-2.857 -0.13,-3.356 -1.127,-5.345 m 10.838,51.286 c 0.647,-0.278 1.311,0.156 2.018,-0.361 2.048,-1.299 7.228,-8.324 8.055,-9.935 4.09,-7.707 4.131,-12.01 3.936,-14.703 -0.255,-3.329 -1.786,-5.611 -5.354,-3.468 -2.18,1.263 -6.429,6.62 -8.082,9.9 -5.238,9.777 -6.736,20.62 -0.573,18.567 m -49.791,-24.744 c -5.456,-3.186 -15.447,2.799 -21.348,8.917 -6.355,6.496 -14.246,18.553 -18.376,30.187 -1.281,3.56 -1.641,8.055 -1.631,10.013 -0.113,8.795 4.054,12.399 14.594,7.479 7.33,-3.469 16.178,-12.753 20.705,-20.304 8.203,-13.521 9.963,-25.56 9.285,-29.954 -0.375,-2.892 -2.162,-5.712 -3.229,-6.338 m 7.262,45.212 c -3.688,8.256 -4.032,15.043 -2.441,16.478 0.141,0.073 -0.478,1.57 -0.357,1.737 1.148,1.468 3.466,1.167 6.276,0.064 5.294,-2.093 9.996,-6.816 14.104,-13.001 9.249,-13.852 12.197,-30.852 3.843,-29.591 -5.798,0.944 -15.528,11.193 -21.425,24.313 m 35.383,10.911 c -3.174,7.47 -1.332,10.318 2.481,8.067 3.711,-2.263 6.31,-5.631 9.07,-11.806 6.958,-16.081 -4.998,-11.664 -11.551,3.739 m -69.568,7.744 c -3.002,3.148 -6.832,7.071 -8.846,10.062 -6.59,9.998 -10.92,20.799 -10.815,25.478 0.077,2.042 0.327,3.435 0.769,4.865 0.941,2.813 5.159,2.87 8.275,1.74 5.058,-1.843 7.896,-3.842 11.678,-7.5 4.277,-4.132 9.408,-9.76 11.595,-13.029 0.658,-0.902 1.811,-2.757 1.976,-2.99 7.658,-12.612 8.034,-18.904 7.477,-23.574 -0.272,-2.321 -0.666,-5.032 -1.838,-5.635 -1.98,-0.768 -6.056,-0.481 -9.263,1.066 -3.899,1.912 -6.9,5.302 -11.008,9.517 m 32.382,40.077 c 4.335,-2.455 7.12,-5.781 10.2,-9.867 1.605,-2.089 3.357,-4.66 4.775,-7.316 5.873,-11.343 5.018,-17.503 0.286,-16.477 -5.706,1.253 -13.594,10.406 -18.44,19.853 -4.363,8.503 -4.256,12.737 -3.565,13.868 1.163,1.772 3.255,1.892 6.744,-0.061 m -87.957,0.535 c -4.032,3.626 -7.942,7.133 -10.309,10.003 -5.94,7.342 -14.182,20.885 -16.107,27.651 -0.804,2.729 0.247,4.629 0.786,6.64 1.465,5.582 5.587,7.262 17.455,1.284 0.569,-0.285 0.957,-0.191 1.538,-0.486 6.957,-3.651 19.799,-15.928 23.286,-20.293 6.271,-7.824 13.34,-22.234 14.33,-25.943 1.131,-4.071 -0.319,-11.392 -2.158,-12.525 -3,-1.649 -11.667,0.778 -15.874,3.062 -4.478,2.475 -8.615,6.485 -12.947,10.607 m 37.686,43.814 c 7.306,-3.253 13.094,-9.073 18.143,-15.15 11.659,-13.868 13.349,-24.763 11.088,-28.296 -1.36,-1.947 -6.079,-1.839 -11.682,2.078 -3.451,2.467 -9.721,9.478 -12.31,12.52 -3.613,4.331 -10.358,13.414 -12.991,21.243 -0.639,1.931 -0.088,3.131 -0.117,3.798 -0.064,1.981 0.52,3.161 1.261,3.995 1.063,1.18 4.294,0.83 6.608,-0.188 m 53.151,-30.674 c -3.893,2.113 -10.411,9.849 -14.127,17.465 -2.114,4.438 -1.814,8.07 -0.003,7.882 1.157,-0.052 2.456,-1.164 4.465,-2.436 4.766,-3.163 8.206,-7.817 10.717,-12.024 5.998,-10.421 3.639,-13.467 -1.052,-10.887 m -82.896,54.376 c 0.753,-0.948 2.214,-2.806 2.423,-3.031 9.404,-12.723 9.972,-18.447 9.255,-22.491 -0.321,-2.024 -0.738,-4.464 -2.237,-4.659 -2.422,-0.294 -7.524,0.842 -11.488,2.952 -4.841,2.541 -8.573,6.225 -13.691,10.782 -3.769,3.373 -8.472,7.638 -10.955,10.668 -8.097,9.994 -13.323,20.16 -13.096,24.186 0.099,1.737 0.428,2.91 1.048,4.024 1.251,2.214 6.435,1.48 10.26,-0.053 6.257,-2.453 9.694,-4.788 14.291,-8.705 5.296,-4.354 11.539,-10.375 14.19,-13.673 m 16.92,13.192 c 1.507,1.407 3.798,1.031 7.682,-1.206 4.956,-2.909 8.344,-6.232 11.362,-9.723 0.74,-0.872 1.871,-1.92 2.709,-3.017 7.806,-9.652 9.794,-17.176 8.209,-18.968 -0.24,-0.246 -0.309,-0.877 -0.694,-1.076 -6.286,-2.919 -25.09,16.89 -29.326,28.806 -1.343,3.73 -0.715,4.418 0.058,5.184 m -82.849,35.732 c 2.849,-2.758 6.727,-6.187 8.666,-8.604 10.073,-12.61 12.712,-23.048 8.71,-24.202 -0.195,-0.008 0.624,-1.541 0.449,-1.677 -5.305,-3.634 -20.389,3.653 -31.639,11.707 -6.536,4.662 -17.259,13.857 -22.509,20.131 -11.174,13.181 -13.289,23.143 -8.081,25.096 3.219,1.215 9.815,-0.077 17.971,-3.823 12.445,-5.741 18.821,-11.358 26.433,-18.628 m 23.658,12.273 c 3.723,-1.873 7.84,-2.17 11.206,-4.977 7.353,-3.927 13.918,-10.721 20.4,-17.373 11.619,-15.616 10.498,-20.202 6.304,-21.945 -3.262,1.266 -6.598,2.48 -9.952,3.751 -7.315,5.167 -14.572,11.457 -21.739,18.917 -12.41,16.325 -11.1,20.334 -6.219,21.627 m 54.887,-21.801 c -4.547,7.183 -1.748,8.458 3.932,5.094 5.496,-3.431 9.425,-7.148 13.359,-13.236 10.376,-15.912 -7.658,-6.749 -17.291,8.142 m -141.409,44.62 c 4.911,-5.861 8.555,-11.604 9.448,-14.743 1.423,-5.191 -1.239,-10.275 -12.362,-8.074 -9.923,2.051 -16.528,5.337 -26.905,11.418 -0.411,0.145 -0.785,0.056 -1.139,0.316 -1.353,0.787 -3.191,2.573 -4.559,3.509 -4.619,2.998 -7.624,4.995 -11.002,7.574 z m 55.427,0 c 8.512,-8.559 12.976,-16.462 13.141,-20.467 0.009,-2.087 -0.151,-2.357 -1.954,-3.168 -3.938,-1.69 -13.458,2.193 -22.598,7.966 -6.211,3.996 -13.664,9.744 -19.845,15.669 z M 157.919,242.185 c -2.728,15.993 -15.714,34.087 -27.535,44.311 16.322,-0.329 25.519,3.823 33.192,8.683 7.819,-14.739 17.646,-24.821 27.176,-34.782 -19.091,-0.375 -26.384,-8.876 -32.833,-18.212 M 68.332,489.551 c -9.733,1.197 -14.156,-1.109 -19.785,-2.577 -7.531,7.202 -14.265,15.186 -22.712,20.975 11.79,-1.355 15.541,1.744 26.326,0.562 3.852,-8.1 11.463,-11.629 16.171,-18.96 M 10.07,435.873 c 15.929,-1.956 20.309,2.235 33.265,1.542 5.859,-11.147 14.643,-18.275 23.016,-26.02 -10.086,-1.51 -21.125,-2.787 -27.689,-6.881 -7.97,12.768 -18.292,22.151 -28.592,31.359 m 140.465,-64.238 c 11.04,-2.463 11.668,2.288 20.343,1.29 4.779,-8.551 10.781,-14.281 16.478,-20.539 -6.328,-1.974 -14.59,-2.727 -18.81,-6.476 -5.071,10.153 -12.59,15.93 -18.011,25.725 m 88.801,-131.361 c 12.996,0.87 19.986,5.614 25.931,10.939 6.844,-14.538 15.182,-24.519 24.22,-32.071 -16.792,-0.241 -22.98,-8.359 -29.039,-16.807 -2.115,14.016 -12.021,29.475 -21.112,37.939 m 13.541,78.497 c 9.206,-1.058 12.53,2.449 16.678,5.107 5.865,-8.404 11.343,-17.159 17.578,-23.647 -8.643,-0.339 -13.566,-3.861 -18.924,-7.127 -4.138,10.694 -10.468,16.086 -15.332,25.667 m -82.946,178.753 c -4.783,6.979 -10.886,11.835 -16.642,17.205 5.898,0.384 13.38,-0.139 16.85,1.83 5.188,-7.749 12.042,-12.718 17.309,-20.37 -9.485,3.1 -9.711,-0.343 -17.517,1.335 M 157.952,447.61 c 7.899,-1.985 6.866,2.265 14.595,0.251 3.339,-6.723 8.897,-9.023 12.1,-15.838 -7.601,1.919 -6.552,-2.319 -14.295,-0.483 -3.248,6.918 -9.01,9.253 -12.4,16.07 M 78.929,549.619 c -12.179,2.403 -16.923,0.596 -22.811,-0.738 -7.782,7.308 -15.418,14.492 -24.226,20.282 12.66,-1.352 19.759,0 27.099,1.186 5.331,-8.149 13.793,-13.046 19.938,-20.73 M 256.94,392.425 c 6.362,-0.62 8.89,1.694 12.167,3.348 5.35,-6.936 10.203,-14.83 15.78,-20.541 -7.052,0.907 -8.977,-2.447 -15.783,-2.068 -3.203,8.515 -8.43,11.82 -12.164,19.261 m 70.218,-114.107 c 9.97,0.431 14.352,5.152 18.911,9.609 5.899,-15.528 13.588,-23.768 21.249,-31.16 -12.147,3.287 -18.902,-4.426 -23.238,-11.055 -2.749,12.548 -9.936,23.584 -16.922,32.606 m 18.701,41.741 c -4.772,11.502 -10.622,19.863 -16.883,27.587 8.13,0.03 12.019,3.481 15.878,6.888 6.451,-14.468 14.146,-22.822 21.83,-30.508 -9.381,3.547 -17.549,0.767 -20.825,-3.967 m -3.501,65.238 c -5.639,11.629 -12.332,20.127 -19.319,28.201 9.031,-1.033 13.525,1.675 15.694,6.36 7.202,-15.35 15.506,-24.541 23.704,-33.353 -9.347,4.266 -17.13,2.717 -20.079,-1.208 m -56.764,105.896 c -11.536,5.143 -18.603,4.145 -23.877,2.38 -7.511,11.825 -16.527,20.347 -25.591,29.005 14.39,-4.189 18.123,-0.798 20.874,3.325 5.458,-12.289 18.744,-25.321 28.594,-34.71 m -2.187,-51.654 c -8.365,2.263 -10.081,-0.994 -17.195,0.105 -4.607,8.918 -10.441,14.713 -16.271,20.872 5.635,0.574 11.577,0.82 14.589,3.263 6.032,-9.355 12.467,-16.768 18.877,-24.24 M 193.66,546.794 c -11.975,3.171 -18.604,2.483 -24.207,1.086 -8.095,10.171 -17.662,17.992 -27.263,25.709 16.459,-3.824 21.227,-0.772 25.038,2.85 4.251,-9.244 16.548,-21.723 26.432,-29.645 M -0.241,595.468 V 349.74 c 13.483,0.197 23.74,3.402 32.029,6.873 10.12,-18.769 23.807,-31.29 37.01,-43.989 -26.398,1.489 -36.522,-7.827 -45.417,-18.17 -2.462,14.309 -12.184,27.494 -23.622,38.789 v -79.815 c 3.936,1.534 7.294,3.279 9.969,5.066 3.581,2.343 6.573,5.554 9.844,7.71 11.545,-61.123 114.197,-89.045 134.957,-47.524 4.905,-26.486 25.853,-43.484 43.406,-52.663 -38.737,8.351 -61.12,-21.12 -55.486,-42.922 7.967,-29.979 44.733,-50.78 77.992,-38.834 20.892,7.588 32.206,35.193 13.004,60.543 -5.487,7.404 -14.346,11.3 -24.572,18.279 22.288,-6.25 44.842,5.367 48.991,18.354 2.31,-10.258 5.893,-21.34 12.746,-29.368 1.395,-1.695 5.188,-3.625 7.427,-5.502 4.607,-3.88 5.391,-5.041 10.544,-7.359 7.162,-3.137 19.495,-6.094 30.082,-2.137 5.554,2.075 8.895,6.326 12.106,10.885 2.46,3.623 3.436,4.361 4.581,8.926 1.552,6.537 2.33,18.082 -3.27,30.724 -2.867,6.448 -8.176,13.102 -14.549,18.877 5.472,1.805 12.341,1.853 17.285,5.368 1.651,1.144 3.915,4.408 4.945,6 1.671,2.364 1.872,5.378 3.4,7.002 1.055,-4.971 2.18,-9.297 4.031,-13.651 3.753,-8.791 11.187,-18.226 16.567,-22.381 2.028,-1.588 4.636,-2.018 7.625,-3.325 2.141,-0.944 4.96,-3.177 6.566,-3.425 11.064,-1.652 20.372,6.746 22.96,14.783 0.515,1.874 0.205,4.866 0.451,8.291 0.088,2.254 1.004,5.282 0.754,7.173 -1.461,11.298 -8.068,22.999 -13.486,29.744 -1.789,2.26 -3.884,4.459 -5.61,6.518 28.269,-6.655 25.551,41.471 -1.37,65.754 14.005,-4.839 19.081,3.708 20.413,12.496 5.429,-25.397 24.379,-48.595 38.133,-44.452 6.589,1.997 8.373,13.421 5.145,24.49 -6.352,21.413 -26.684,43.735 -38.965,37.538 -2.986,-1.507 -3.314,-6.316 -5.02,-11.129 -1.408,13.459 -14.219,34.267 -23.822,42.568 6.065,-2.255 12.139,-3.649 15.325,-1.242 0.744,0.482 0.924,2.755 1.455,3.759 1.265,2.181 1.74,2.289 1.77,5.624 0.075,6.278 -2.942,19.573 -13.712,34.234 -1.328,1.764 -3.776,3.883 -5.568,5.943 -3.635,4.088 -4.437,5.166 -8.299,8.47 -5.609,4.654 -15.037,11.105 -22.769,12.139 -4.422,0.486 -6.998,-1.392 -9.027,-4.52 -4.052,6.46 -7.455,13.394 -13.055,20.439 -1.88,2.387 -6.054,6.627 -8.099,8.661 -3.115,3.16 -6.033,5.254 -8.527,7.825 4.163,-1.781 7.599,-3.203 10.636,-3.758 6.092,-1.14 10.674,1.473 11.561,4.912 0.345,1.311 -0.663,3.896 -1.066,6.413 -0.317,1.807 0.206,3.642 -0.453,5.277 -4.713,11.529 -18.635,27.763 -28.605,35.945 -2.332,1.911 -5.349,3.463 -9.12,6.027 -2.548,1.604 -6.49,4.785 -8.391,5.776 -11.576,5.916 -20.084,5.839 -23.845,3.936 -1.243,-0.667 -2.137,-1.739 -3.312,-2.341 -14.975,31.329 -79.271,64.426 -88.048,48.662 -1.32,2.509 -2.985,4.997 -4.92,7.442 z m 331.355,0 c 3.88,-3.156 8.228,-7.064 9.227,-8.152 7.298,-8.033 7.365,-11.168 7.007,-12.951 -0.451,-2.214 -3.249,-2.814 -9.726,1.142 -3.875,2.444 -11.576,8.92 -14.693,12.285 -2.584,2.792 -4.63,5.432 -5.997,7.676 z"
                   style="fill:url(#linearGradient1136);fill-opacity:0.3;stroke:none"
                   id="path1138"
                   inkscape:connector-curvature="0" /></g></g></g></g></g></g></g></svg>
