<svg viewBox="0 0 512 512" xmlns="http://www.w3.org/2000/svg"><path d="m256 151c-57.898438 0-105 47.101562-105 105s47.101562 105 105 105 105-47.101562 105-105-47.101562-105-105-105zm0 180c-41.355469 0-75-33.644531-75-75s33.644531-75 75-75 75 33.644531 75 75-33.644531 75-75 75zm0 0"/><path d="m376 60h-240c-41.417969 0-76 34.472656-76 76v240c0 41.484375 34.542969 76 76 76h240c41.484375 0 76-34.542969 76-76v-240c0-41.578125-34.628906-76-76-76zm46 316c0 24.933594-21.066406 46-46 46h-240c-24.933594 0-46-21.066406-46-46v-240c0-24.933594 21.066406-46 46-46h240c24.933594 0 46 21.066406 46 46zm0 0"/><path d="m437 0h-362c-41.355469 0-75 33.644531-75 75v362c0 41.355469 33.644531 75 75 75h362c41.355469 0 75-33.644531 75-75v-362c0-41.355469-33.644531-75-75-75zm45 437c0 24.8125-20.1875 45-45 45h-362c-24.8125 0-45-20.1875-45-45v-362c0-24.8125 20.1875-45 45-45h362c24.8125 0 45 20.1875 45 45zm0 0"/><path d="m361 121c-16.542969 0-30 13.457031-30 30s13.457031 30 30 30 30-13.457031 30-30-13.457031-30-30-30zm0 0"/></svg>